<svg xmlns="http://www.w3.org/2000/svg" xml:space="preserve" style="fill-rule:evenodd;clip-rule:evenodd;stroke-linejoin:round;stroke-miterlimit:2" viewBox="0 0 148 174"><path d="M66.535 156.073c-3.077-.158-3.409.498-5.632-1.618-1.985-1.889-1.707-2.311-1.707-33.409 0-10.506-.89-17.358 3.629-15.567 2.643 1.047 1.331 2.162 1.616 43.357.024 3.51 4.275 1.849 4.382 1.1.206-1.445.046-44.282.032-48.133-.007-1.987-.91-1.346-2.862-1.375-2.584-.037-5.138-1.276-5.804-.681-.983.878-.772.983-8.298 14.227-1.718 3.023-2.973 3.21-1.11 6.16 2.345 3.712 1.714 9.405-1.899 8.457-2.394-.629-1.783-1.351-1.969-3.821a4.67 4.67 0 0 0-6.961-3.474c-4.829 2.4-4.605-2.305-4.318-2.88 1.763-3.533 8.879-2.968 9.091-3.056 1.181-.487.826-.887 8.208-13.693 2.105-3.652 3.821-4.366.638-7.162-.751-.659-1.169.034-17.933 9.612-1.826 1.044-1.234 1.479-1.245 3.566-.034 6.35-5.379 8.621-6.488 4.857-.558-1.892 4.877-9.034-4.123-9.681-2.611-.188-3.194-2.838-2.063-4.199 2.718-3.271 9.506 1.809 10.517 1.335.128-.06 17.279-9.962 17.578-10.152.669-.424.565-3.965-1.452-3.988-19.909-.23-20.441-.456-21.186 1.069-3.223 6.602-7.419 6.102-8.548 4.097-1.381-2.451 2.372-4.305 2.374-4.308 4.776-4.097-2.358-8.989-2.389-9.044-2.076-3.736 4.847-5.875 8.295 1.196 1.278 2.62 1.987 1.737 4.889 1.738 17.153.002 17.545.169 17.914-.793 1.048-2.731.516-3.059-2.012-4.496-15.397-8.749-15.612-9.568-17.157-8.502-3.703 2.554-8.237 2.776-9.245.189-1.45-3.724 4.235-3.129 6.066-4.408 4.58-3.198-2.36-9.121 2.302-10.47 4.767-1.38 4.619 7.755 4.606 8.531-.02 1.244 2.867 2.479 12.89 8.255 4.181 2.409 4.872 4.9 8.069 1.305.748-.841-1.323-3.67-4.491-9.16-4.225-7.32-5.447-10.204-6.652-10.176-.768.018-9.114.212-8.674-4.128.43-4.239 5.727-.913 7.075-.98 4.821-.239 4.558-6.159 4.71-6.535 1.248-3.069 8.802-1.138 2.819 8.097-.881 1.359-.441 1.677 9.272 17.997.184.31 2.028 3.407 4.464.59.839-.97.268-19.11.216-20.771-.04-1.279-.554-.937-2.118-1.829-3.461-1.972-5.631-5.74-3.722-7.634 2.605-2.585 5.256 2.28 5.347 2.365 4.157 3.901 8.505-2.777 8.539-2.797 3.728-2.213 5.998 4.574-.773 8.108-2.891 1.509-1.993 2.258-1.993 5.537-.003 16.8-.083 16.931.407 17.21 4.025 2.297 3.884-.215 6.206-4.245 7.092-12.31 8.186-13.211 7.273-14.592-4.807-7.27-.426-9.374 0-9.445 4.28-.713 2.066 4.84 4.759 6.818 3.124 2.295 5.457.32 6.406-.091 2.072-.896 4.411 1.785 3.106 3.734-2.207 3.297-8.734 2.626-8.972 2.726-1.115.47-.714.887-7.744 12.998-2.307 3.975-4.573 4.59-1.215 7.738.963.903 3.782-1.235 7.5-3.383 11.059-6.386 11.971-6.179 11.835-8.796-.212-4.087 1.918-8.122 4.601-7.476 3.622.872.833 5.416.728 5.928-1.051 5.151 4.54 5.482 5.142 5.518 3.562.211 3.64 4.473.547 5.161-4.637 1.031-7.133-3.344-9.503-1.953-16.877 9.909-17.651 9.742-17.373 11.033.708 3.282 1.631 2.815 4.958 2.819 17.254.024 17.554.063 17.967-.807 4.021-8.471 9.106-5.845 8.96-3.096-.136 2.571-9.009 5.559-1.379 10.836 3.078 2.129.463 6.046-2.529 4.566-5.662-2.8-3.618-6.211-6.987-6.25-19.322-.223-20.013-.641-20.492.929-.942 3.083-.006 3.07 1.652 4.039 16.318 9.541 16.554 9.506 17.102 9.162.632-.397 7.072-4.44 9.222-1.383 3.022 4.297-4.259 4.299-5.236 4.977-5.411 3.75 2.29 9.474-2.732 10.713-4.94 1.219-4.546-9.324-5.009-9.622-.543-.35-17.342-10.05-17.569-10.169-1.354-.713-3.24 1.854-3.174 2.507.05.491 10.276 17.945 10.347 18.049.764 1.107 2.381-.566 6.809 1.174 4.425 1.739 3.431 7.516-2.142 4.82-2.359-1.141-6.109.362-6.408 3.74-.037.413-.47 5.313-3.698 3.639-4.242-2.201 1.034-10.032.887-10.547-.087-.306-8.884-15.631-8.92-15.636-1.194-.167-.47.753-.47 15.062 0 34.793.292 35.26-1.858 37.233-2.307 2.118-2.637 1.328-5.719 1.535ZM78.58 83.104c-1.583-15.675-19.602-14.669-23.315-3.759C49.806 95.383 76.94 103.1 78.58 83.104M137.631 62.019c-1.142-.237-2.315-.116-4.871-1.837-1.657-1.115-1.842-.505-6.776 2.301-4.888 2.779-6.108-2.485-3.174-4.238 4.792-2.863 5.977-2.352 5.905-5.615-.107-4.802 2.337-7.433 4.084-7.306 4.916.356.258 5.412 1.453 8.444 1.409 3.575 5.448 3.036 5.517 3.044 1.571.161 2.779 2.257 1.922 3.743-1.113 1.93-3.927 1.459-4.059 1.465ZM114.901 21.694c.146.603 1.548 6.405 6.749 3.823.363-.18 3.186-3.088 5.195-.608 1.828 2.256-1.678 5.885-6.332 6.376-3.295.347-2.313 1.649-3.469 4.697-.141.373-1.426 3.763-2.905 4.051-1.595.311-3.799-1.003-2.741-3.97 1.569-4.401 1.6-4.379 1.734-4.762 1.148-3.289-1.663-2.601-2.872-6.415-2.01-6.341 3.195-7.163 4.641-3.192"/></svg>